#!OML:ASF H:\Terrain\Patient Classification 1\Animal1\Tuesday\Animal1.ASF
:FULLY-SPECIFIED
:DEGREES
1428
root 4.8317 16.459 3.05038 5.10043 -3.66735 -358.528
lowerback 2.54489 -1.65841 0.624967
upperback 2.33051 -2.20515 0.86589
thorax 0.972724 -1.10133 0.572748
lowerneck -0.930816 -1.51199 -7.04579
upperneck -17.1351 -0.799436 11.0411
head -4.82963 -0.619434 4.68412
rclavicle 7.95139e-016 3.18055e-015
rhumerus -38.1145 -15.7795 -59.0307
rradius 12.8187
rwrist 0.93909
rhand -21.1721 25.7365
rfingers 7.12502
rthumb 5.20814 -4.1795
lclavicle 7.95139e-016 3.18055e-015
lhumerus -38.6515 22.2992 61.9736
lradius 18.9706
lwrist -37.1483
lhand 3.98458 37.1345
lfingers 7.12502
lthumb -150.599 -115.171
rfemur -23.0784 12.3969 21.2082
rtibia 34.5467
rfoot -7.85854 -23.448
rtoes -5.4743
lfemur -12.7416 -8.03893 -13.7807
ltibia 26.1809
lfoot -20.6234 24.072
ltoes 6.85119
1429
root 4.85102 16.4661 3.06316 5.08504 -3.52983 -358.944
lowerback 2.1375 -1.68234 0.99705
upperback 2.35294 -2.23926 0.967382
thorax 1.21388 -1.11339 0.455667
lowerneck -0.730309 -1.54135 -7.11456
upperneck -16.623 -0.865919 11.1851
head -4.69823 -0.654537 4.73292
rclavicle -1.08338e-014 1.03368e-014
rhumerus -38.0401 -14.9981 -59.7274
rradius 13.4106
rwrist -0.32187
rhand -21.4329 26.6689
rfingers 7.12502
rthumb 4.95632 -3.25317
lclavicle -1.08338e-014 1.03368e-014
lhumerus -38.4197 22.6865 62.0679
lradius 19.2139
lwrist -37.242
lhand 3.94125 37.0359
lfingers 7.12502
lthumb -150.64 -115.263
rfemur -22.7245 12.6361 21.5503
rtibia 34.1408
rfoot -7.98081 -23.6216
rtoes -4.88648
lfemur -12.3681 -8.22417 -13.4794
ltibia 25.6238
lfoot -19.2579 25.118
ltoes 0.647284
1430
root 4.86709 16.4785 3.07428 5.05003 -3.32527 -359.112
lowerback 1.85461 -1.72229 1.09365
upperback 2.31658 -2.29689 1.0331
thorax 1.33399 -1.14091 0.460871
lowerneck -0.543639 -1.61504 -7.12141
upperneck -16.1058 -1.01221 11.1755
head -4.55885 -0.723573 4.72411
rclavicle -1.14301e-014 7.55382e-015
rhumerus -37.9676 -14.0882 -60.4563
rradius 14.1236
rwrist -1.55852
rhand -21.6024 25.7691
rfingers 7.12502
rthumb 4.79272 -4.15673
lclavicle -1.14301e-014 7.55382e-015
lhumerus -38.2822 22.8601 62.2795
lradius 19.5177
lwrist -37.2986
lhand 3.83763 36.9506
lfingers 7.12502
lthumb -150.739 -115.331
rfemur -22.3263 12.7716 21.7226
rtibia 33.7756
rfoot -7.35575 -23.8113
rtoes -5.36156
lfemur -11.9993 -8.4889 -13.4428
ltibia 25.0146
lfoot -17.2206 26.43
ltoes -6.47899
1431
root 4.88417 16.497 3.08648 4.98334 -3.18215 -358.9
lowerback 1.64198 -1.70386 0.833658
upperback 2.20462 -2.27573 0.970317
thorax 1.3455 -1.13372 0.536717
lowerneck -0.290231 -1.69885 -7.025
upperneck -15.455 -1.189 11.0904
head -4.39035 -0.809197 4.67211
rclavicle 8.64713e-015 1.43125e-014
rhumerus -38.0585 -13.0618 -61.1725
rradius 14.7658
rwrist -2.8016
rhand -22.0635 25.8593
rfingers 7.12502
rthumb 4.34749 -4.0761
lclavicle 8.64713e-015 1.43125e-014
lhumerus -38.1541 22.4704 62.7062
lradius 19.7634
lwrist -36.944
lhand 3.51084 36.7189
lfingers 7.12502
lthumb -151.051 -115.509
rfemur -21.9453 13.0134 21.4547
rtibia 33.395
rfoot -6.88979 -24.0242
rtoes -5.66365
lfemur -11.5811 -8.97344 -13.7849
ltibia 24.3768
lfoot -16.4838 27.02
ltoes -7.88323
1432
root 4.90137 16.5081 3.09546 4.89909 -3.09777 -358.872
lowerback 1.46545 -1.66243 0.786916
upperback 2.0577 -2.22096 0.912142
thorax 1.2928 -1.10668 0.500117
lowerneck 0.173169 -1.78009 -6.8656
upperneck -14.8388 -1.37262 10.9521
head -4.26986 -0.904477 4.5969
rclavicle 9.64106e-015 -3.97569e-015
rhumerus -38.2919 -12.5222 -61.64
rradius 15.1804
rwrist -3.2147
rhand -22.952 27.078
rfingers 7.12502
rthumb 3.48942 -2.87322
lclavicle 9.64106e-015 -3.97569e-015
lhumerus -38.0604 21.7112 63.2356
lradius 20.0811
lwrist -36.3248
lhand 3.26251 36.7412
lfingers 7.12502
lthumb -151.289 -115.446
rfemur -21.6515 13.3605 21.3117
rtibia 33.041
rfoot -7.33727 -24.3564
rtoes -4.97349
lfemur -11.1432 -9.27296 -13.9446
ltibia 23.6838
lfoot -15.0751 27.7724
ltoes -11.6204
